<?xml version="1.0" encoding="utf-8" standalone="yes"?>
<!DOCTYPE svg PUBLIC "-//W3C//DTD SVG 1.1//EN" "http://www.w3.org/Graphics/SVG/1.1/DTD/svg11.dtd">
<svg style="fill:none;stroke:none;fill-rule:evenodd;clip-rule:evenodd;stroke-linecap:round;stroke-linejoin:round;stroke-miterlimit:1.5;" version="1.1" xmlns="http://www.w3.org/2000/svg" xmlns:xlink="http://www.w3.org/1999/xlink" width="913" height="672" viewBox="0 0 913 672"><style class="text-font-style fontImports" data-font-family="Roboto">@import url(https://fonts.googleapis.com/css2?family=Roboto:wght@400;700&amp;amp;display=block);</style><g id="items" style="isolation: isolate"><g id="blend" style="mix-blend-mode: normal"><g id="g-root-cp_0_g-0_4lpd5x13gz4le-fill" data-item-order="-498229" transform="translate(302, 217.9990234375)"></g><g id="g-root-cp_6_g-6_4lpd5x13gz4lf-fill" data-item-order="-498225" transform="translate(272, 121.9990234375)"></g><g id="g-root-cp_5_g-5_1ursvz913gz218-fill" data-item-order="-498219" transform="translate(182, 277.9990234375)"></g><g id="g-root-cp_4_g-4_1ursvz913gz219-fill" data-item-order="-498213" transform="translate(272, 433.9990234375)"></g><g id="g-root-cp_3_g-3_1qbzdut13gz2ti-fill" data-item-order="-498207" transform="translate(455, 433.9990234375)"></g><g id="g-root-cp_2_g-2_1qbzdut13gz2tj-fill" data-item-order="-498201" transform="translate(542, 277.9990234375)"></g><g id="g-root-cp_1_g-1_1lw5vqd13gz3ls-fill" data-item-order="-498195" transform="translate(452, 121.9990234375)"></g><g id="g-root-tx_developi_18hkzxh13h1vkc-fill" data-item-order="0" transform="translate(650, 134)"><g id="tx_developi_18hkzxh13h1vkc-fill-merged" stroke="none" fill="#484848" fill-opacity="1"><g><text style="font: 15px Roboto, sans-serif; white-space: pre;" transform="translate(10, 46)" font-size="15px" font-family="Roboto, sans-serif"><tspan x="2" y="-18.5" dominant-baseline="ideographic">Developing and </tspan><tspan x="2" y="-0.5" dominant-baseline="ideographic">maintaining </tspan><tspan x="2" y="17.5" dominant-baseline="ideographic">software </tspan><tspan x="2" y="35.5" dominant-baseline="ideographic">applications</tspan></text></g></g></g><g id="g-root-tx_enhancin_ddliw513h1xc2-fill" data-item-order="0" transform="translate(98, 170)"><g id="tx_enhancin_ddliw513h1xc2-fill-merged" stroke="none" fill="#484848" fill-opacity="1"><g><text style="font: 15px Roboto, sans-serif; white-space: pre;" transform="translate(154, 28)" font-size="15px" font-family="Roboto, sans-serif"><tspan x="-138.88" y="-0.5" dominant-baseline="ideographic">Enhancing efficiency </tspan><tspan x="-120.04" y="17.5" dominant-baseline="ideographic">and effectiveness</tspan></text></g></g></g><g id="g-root-ic_type_zpou7913gz2tn-fill" data-item-order="0" transform="translate(524, 165)"></g><g id="g-root-ic_2_1lw5vqd13h0gzq-fill" data-item-order="0" transform="translate(320, 165)"></g><g id="g-root-tx_processi_htf10l13h1wjt-fill" data-item-order="0" transform="translate(98, 110)"><g id="tx_processi_htf10l13h1wjt-fill-merged" stroke="none" fill="#e55753" fill-opacity="1"><g><text style="font: 20px Roboto, sans-serif; white-space: pre;" transform="translate(154, 34)" font-size="20px" font-family="Roboto, sans-serif"><tspan x="-74.33" y="-0.5" dominant-baseline="ideographic">Process </tspan><tspan x="-130.27" y="23.5" dominant-baseline="ideographic">Improvements</tspan></text></g></g></g><g id="g-root-tx_coderevi_4ikzqd13h1uyz-fill" data-item-order="0" transform="translate(38, 314)"><g id="tx_coderevi_4ikzqd13h1uyz-fill-merged" stroke="none" fill="#de8431" fill-opacity="1"><g><text style="font: 20px Roboto, sans-serif; white-space: pre;" transform="translate(130, 22)" font-size="20px" font-family="Roboto, sans-serif"><tspan x="-116.26" y="11.5" dominant-baseline="ideographic">Code Review</tspan></text></g></g></g><g id="g-root-ic_2_zlxzol13h0iyt-fill" data-item-order="0" transform="translate(218, 338)"></g><g id="g-root-tx_designar_1hclj3913h1xxd-fill" data-item-order="0" transform="translate(734, 302)"><g id="tx_designar_1hclj3913h1xxd-fill-merged" stroke="none" fill="#3cc583" fill-opacity="1"><g><text style="font: 20px Roboto, sans-serif; white-space: pre;" transform="translate(10, 34)" font-size="20px" font-family="Roboto, sans-serif"><tspan x="2" y="-0.5" dominant-baseline="ideographic">Design &amp; </tspan><tspan x="2" y="23.5" dominant-baseline="ideographic">Architecture</tspan></text></g></g></g><g id="g-root-ic_buil_13zw2jp13h1xc0-fill" data-item-order="0" transform="translate(626, 339)"></g><g id="g-root-tx_worklife_zpou7913gz2tm-fill" data-item-order="0" transform="translate(398, 350)"><g id="tx_worklife_zpou7913gz2tm-fill-merged" stroke="none" fill="#484848" fill-opacity="1"><g><text style="font: bold 20px Roboto, sans-serif; white-space: pre;" transform="translate(58, 22)" font-weight="bold" font-size="20px" font-family="Roboto, sans-serif"><tspan x="-42.65" y="11.5" dominant-baseline="ideographic">Work Life</tspan></text></g></g></g><g id="g-root-tx_acquirin_1lsf17p13h1x54-fill" data-item-order="0" transform="translate(650, 578)"><g id="tx_acquirin_1lsf17p13h1x54-fill-merged" stroke="none" fill="#484848" fill-opacity="1"><g><text style="font: 15px Roboto, sans-serif; white-space: pre;" transform="translate(10, 28)" font-size="15px" font-family="Roboto, sans-serif"><tspan x="2" y="-0.5" dominant-baseline="ideographic">Acquiring new skills </tspan><tspan x="2" y="17.5" dominant-baseline="ideographic">and guiding others</tspan></text></g></g></g><g id="g-root-tx_creating_1hclj3913h1xxe-fill" data-item-order="0" transform="translate(734, 362)"><g id="tx_creating_1hclj3913h1xxe-fill-merged" stroke="none" fill="#484848" fill-opacity="1"><g><text style="font: 15px Roboto, sans-serif; white-space: pre;" transform="translate(10, 40)" font-size="15px" font-family="Roboto, sans-serif"><tspan x="2" y="-9.5" dominant-baseline="ideographic">Creating and </tspan><tspan x="2" y="8.5" dominant-baseline="ideographic">planning software </tspan><tspan x="2" y="26.5" dominant-baseline="ideographic">systems</tspan></text></g></g></g><g id="g-root-tx_coding_18hkzxh13h1vkb-fill" data-item-order="0" transform="translate(650, 98)"><g id="tx_coding_18hkzxh13h1vkb-fill-merged" stroke="none" fill="#1eabda" fill-opacity="1"><g><text style="font: 20px Roboto, sans-serif; white-space: pre;" transform="translate(10, 22)" font-size="20px" font-family="Roboto, sans-serif"><tspan x="2" y="11.5" dominant-baseline="ideographic">Coding</tspan></text></g></g></g><g id="g-root-tx_balancin_1d0ivhh13gz4eh-fill" data-item-order="0" transform="translate(278.5, 38)"><g id="tx_balancin_1d0ivhh13gz4eh-fill-merged" stroke="none" fill="#484848" fill-opacity="1"><g><text style="font: bold 25px Roboto, sans-serif; white-space: pre;" transform="translate(178, 28)" font-weight="bold" font-size="25px" font-family="Roboto, sans-serif"><tspan x="-164.22" y="14.5" dominant-baseline="ideographic">Balancing Professional Roles</tspan></text></g></g></g><g id="g-root-ic_toss_dkgqud13h0hlb-fill" data-item-order="0" transform="translate(320, 512)"></g><g id="g-root-ic_2_hs62ud13h0gzw-fill" data-item-order="0" transform="translate(524, 512)"></g><g id="g-root-tx_socializ_2rhlx13h1vr9-fill" data-item-order="0" transform="translate(134, 518)"><g id="tx_socializ_2rhlx13h1vr9-fill-merged" stroke="none" fill="#7f64ea" fill-opacity="1"><g><text style="font: 20px Roboto, sans-serif; white-space: pre;" transform="translate(118, 22)" font-size="20px" font-family="Roboto, sans-serif"><tspan x="-98.28" y="11.5" dominant-baseline="ideographic">Socializing</tspan></text></g></g></g><g id="g-root-tx_learning_1lsf17p13h1x53-fill" data-item-order="0" transform="translate(650, 518)"><g id="tx_learning_1lsf17p13h1x53-fill-merged" stroke="none" fill="#92bd39" fill-opacity="1"><g><text style="font: 20px Roboto, sans-serif; white-space: pre;" transform="translate(10, 34)" font-size="20px" font-family="Roboto, sans-serif"><tspan x="2" y="-0.5" dominant-baseline="ideographic">Learning &amp; </tspan><tspan x="2" y="23.5" dominant-baseline="ideographic">Mentoring</tspan></text></g></g></g><g id="g-root-tx_building_1q88jc513h1wcu-fill" data-item-order="0" transform="translate(122, 554)"><g id="tx_building_1q88jc513h1wcu-fill-merged" stroke="none" fill="#484848" fill-opacity="1"><g><text style="font: 15px Roboto, sans-serif; white-space: pre;" transform="translate(130, 40)" font-size="15px" font-family="Roboto, sans-serif"><tspan x="-55.73" y="-9.5" dominant-baseline="ideographic">Building </tspan><tspan x="-116.54" y="8.5" dominant-baseline="ideographic">relationships and </tspan><tspan x="-76.02" y="26.5" dominant-baseline="ideographic">networking</tspan></text></g></g></g><g id="g-root-tx_ensuring_2rhlx13h1vr8-fill" data-item-order="0" transform="translate(50, 350)"><g id="tx_ensuring_2rhlx13h1vr8-fill-merged" stroke="none" fill="#484848" fill-opacity="1"><g><text style="font: 15px Roboto, sans-serif; white-space: pre;" transform="translate(118, 40)" font-size="15px" font-family="Roboto, sans-serif"><tspan x="-96.8" y="-9.5" dominant-baseline="ideographic">Ensuring code </tspan><tspan x="-74.88" y="8.5" dominant-baseline="ideographic">quality and </tspan><tspan x="-68.86" y="26.5" dominant-baseline="ideographic">standards</tspan></text></g></g></g><g id="g-root-cp_0_g-0_4lpd5x13gz4le-stroke" data-item-order="-498229" transform="translate(302, 217.9990234375)"><g id="cp_0_g-0_4lpd5x13gz4le-stroke" fill="none" stroke-linecap="round" stroke-linejoin="round" stroke-miterlimit="4" stroke="#484848" stroke-width="2" stroke-opacity="1"><g><path d="M 298 154C 298 74.471 233.529 10 154 10C 74.471 10 10 74.471 10 154C 10 233.529 74.471 298 154 298C 233.529 298 298 233.529 298 154Z"></path></g></g></g><g id="g-root-cp_6_g-6_4lpd5x13gz4lf-stroke" data-item-order="-498225" transform="translate(272, 121.9990234375)"><g id="cp_6_g-6_4lpd5x13gz4lf-stroke" fill="none" stroke-linecap="round" stroke-linejoin="round" stroke-miterlimit="4" stroke="#e55753" stroke-width="2" stroke-opacity="1"><g><path d="M 178 94C 178 47.6081 140.3919 10 94 10C 47.6081 10 10 47.6081 10 94C 10 129.4045 31.9035 159.6932 62.8989 172.0543C 87.3686 134.1152 129.1807 108.4144 177.1261 106.1612C 177.7019 102.1906 178 98.1301 178 94ZM 177.125637 106.161133C 171.233738 146.790033 136.261338 177.999933 93.999538 177.999933C 83.012138 177.999933 72.517538 175.890433 62.898438 172.054233C 87.368138 134.115133 129.180238 108.414333 177.125637 106.161133Z"></path></g></g></g><g id="g-root-cp_5_g-5_1ursvz913gz218-stroke" data-item-order="-498219" transform="translate(182, 277.9990234375)"><g id="cp_5_g-5_1ursvz913gz218-stroke" fill="none" stroke-linecap="round" stroke-linejoin="round" stroke-miterlimit="4" stroke="#de8431" stroke-width="2" stroke-opacity="1"><g><path d="M 94 10C 113.6251 10 131.6783 16.7301 145.9776 28.0082C 135.7664 47.7775 130 70.2153 130 94C 130 117.7847 135.7664 140.2226 145.9776 159.9918C 131.6783 171.2699 113.6251 178 94 178C 47.6081 178 10 140.3919 10 94C 10 47.6081 47.6081 10 94 10ZM 130 93.999613C 130 70.214913 135.7665 47.777113 145.9776 28.007813C 165.4804 43.390113 178 67.232813 178 93.999613C 178 120.766413 165.4804 144.609112 145.9776 159.991413C 135.7665 140.222213 130 117.784313 130 93.999613Z"></path></g></g></g><g id="g-root-cp_4_g-4_1ursvz913gz219-stroke" data-item-order="-498213" transform="translate(272, 433.9990234375)"><g id="cp_4_g-4_1ursvz913gz219-stroke" fill="none" stroke-linecap="round" stroke-linejoin="round" stroke-miterlimit="4" stroke="#7f64ea" stroke-width="2" stroke-opacity="1"><g><path d="M 10 93.999613C 10 58.595113 31.9035 28.306413 62.8989 15.945313C 87.3685 53.884513 129.1807 79.585213 177.1261 81.838513C 177.7019 85.809013 178 89.869513 178 93.999613C 178 140.391513 140.3919 177.999613 94 177.999613C 47.6081 177.999613 10 140.391513 10 93.999613ZM 62.898438 15.9457C 72.517538 12.1095 83.012138 10 93.999538 10C 136.261338 10 171.233738 41.2099 177.125738 81.8388C 129.180238 79.5856 87.368138 53.8849 62.898438 15.9457Z"></path></g></g></g><g id="g-root-cp_3_g-3_1qbzdut13gz2ti-stroke" data-item-order="-498207" transform="translate(455, 433.9990234375)"><g id="cp_3_g-3_1qbzdut13gz2ti-stroke" fill="none" stroke-linecap="round" stroke-linejoin="round" stroke-miterlimit="4" stroke="#92bd39" stroke-width="2" stroke-opacity="1"><g><path d="M 10 94.000644C 10 89.810244 10.3068 85.691544 10.8993 81.665744C 57.9594 78.470644 98.8147 52.665744 122.6889 15.027344C 154.9539 26.751044 178 57.684544 178 94.000644C 178 140.392544 140.3919 178.000644 94 178.000644C 47.6081 178.000644 10 140.392544 10 94.000644ZM 10.899414 81.6651C 16.865814 41.121 51.798614 10 94.000114 10C 104.075914 10 113.737314 11.774 122.689114 15.0267C 98.814814 52.665 57.959514 78.47 10.899414 81.6651Z"></path></g></g></g><g id="g-root-cp_2_g-2_1qbzdut13gz2tj-stroke" data-item-order="-498201" transform="translate(542, 277.9990234375)"><g id="cp_2_g-2_1qbzdut13gz2tj-stroke" fill="none" stroke-linecap="round" stroke-linejoin="round" stroke-miterlimit="4" stroke="#3cc583" stroke-width="2" stroke-opacity="1"><g><path d="M 178.000061 94C 178.000061 47.6081 140.391961 10 94.000061 10C 74.374961 10 56.321761 16.7301 42.022461 28.0082C 52.233561 47.7775 58.000061 70.2153 58.000061 94C 58.000061 117.7847 52.233561 140.2225 42.022461 159.9918C 56.321761 171.2699 74.374961 178 94.000061 178C 140.391961 178 178.000061 140.3919 178.000061 94ZM 58 93.999613C 58 117.784313 52.2335 140.222112 42.0224 159.991413C 22.5196 144.609112 10 120.766413 10 93.999613C 10 67.232813 22.5196 43.390113 42.0224 28.007813C 52.2335 47.777113 58 70.214913 58 93.999613Z"></path></g></g></g><g id="g-root-cp_1_g-1_1lw5vqd13gz3ls-stroke" data-item-order="-498195" transform="translate(452, 121.9990234375)"><g id="cp_1_g-1_1lw5vqd13gz3ls-stroke" fill="none" stroke-linecap="round" stroke-linejoin="round" stroke-miterlimit="4" stroke="#1eabda" stroke-width="2" stroke-opacity="1"><g><path d="M 178 94C 178 129.4045 156.0965 159.6932 125.1011 172.0543C 100.6315 134.1152 58.8193 108.4144 10.8739 106.1612C 10.2981 102.1906 10 98.1301 10 94C 10 47.6081 47.6081 10 94 10C 140.3919 10 178 47.6081 178 94ZM 125.101323 172.054333C 100.631623 134.115133 58.819523 108.414333 10.874023 106.161133C 16.766023 146.790033 51.738323 177.999933 94.000123 177.999933C 104.987523 177.999933 115.482223 175.890433 125.101323 172.054333Z"></path></g></g></g><g id="g-root-tx_developi_18hkzxh13h1vkc-stroke" data-item-order="0" transform="translate(650, 134)"></g><g id="g-root-tx_enhancin_ddliw513h1xc2-stroke" data-item-order="0" transform="translate(98, 170)"></g><g id="g-root-ic_type_zpou7913gz2tn-stroke" data-item-order="0" transform="translate(524, 165)"><g id="ic_type_zpou7913gz2tn-stroke" fill="none" stroke-linecap="round" stroke-linejoin="round" stroke-miterlimit="4" stroke="#1eabda" stroke-width="2" stroke-opacity="1"><g><path d="M 26.690001 41.917999L 27.254 39.954002C 27.487066 39.139381 27.015621 38.290066 26.201 38.056999C 25.386381 37.823936 24.537066 38.29538 24.304001 39.110001L 23.743999 41.077999M 22.057999 46.978001L 23.743999 41.077999C 23.91781 40.286766 23.446413 39.496773 22.667542 39.27401C 21.888672 39.051247 21.070847 39.472519 20.799999 40.236L 19.959999 43.183998M 27.200001 57C 29.354 54.886002 31.6 52.360001 31.6 52.360001C 32.085701 51.9729 32.2052 51.283749 31.878183 50.755726C 31.551165 50.227699 30.880951 50.027637 30.317999 50.289997L 26.834 52.599998L 29.634001 42.771999C 29.867065 41.957382 29.395622 41.108067 28.581001 40.875C 27.766382 40.641937 26.917065 41.11338 26.684002 41.928001L 25 47.818001M 18.689999 47.599998L 19.952 43.175999C 20.184151 42.361862 19.712263 41.513702 18.898083 41.281708C 18.0839 41.049717 17.235832 41.521774 17.004 42.335999L 14.2 52.172001C 13.728152 53.807381 14.103254 55.570362 15.2 56.872002M 41.419998 41.917999L 40.858002 39.954002C 40.655586 39.15097 41.127098 38.332245 41.923256 38.104309C 42.719418 37.876373 43.552773 38.321518 43.806 39.110001L 44.366001 41.077999M 46.051998 46.978001L 44.366001 41.077999C 44.133488 40.262825 44.605827 39.413513 45.420998 39.181C 46.236172 38.948486 47.085487 39.42083 47.318001 40.236L 48.158001 43.183998M 40.902 57C 38.748001 54.886002 36.514 52.360001 36.514 52.360001C 36.03072 51.972549 35.912354 51.285488 36.238121 50.758659C 36.563889 50.231831 37.231445 50.03075 37.793999 50.289997L 41.278 52.599998L 38.478001 42.771999C 38.244938 41.957382 38.716385 41.108067 39.531002 40.875C 40.345623 40.641937 41.194939 41.11338 41.428001 41.928001L 43.112 47.827999M 49.419998 47.599998L 48.158001 43.175999C 47.947216 42.368973 48.419899 41.54142 49.222111 41.312992C 50.024319 41.084564 50.862041 41.53899 51.107998 42.335999L 53.908001 52.164001C 54.379848 53.799381 54.004745 55.562363 52.908001 56.863998M 23.056 11L 45.056 11C 46.160568 11 47.056 11.895431 47.056 13L 47.056 26L 47.056 26L 21.056 26L 21.056 26L 21.056 13C 21.056 11.895431 21.951431 11 23.056 11ZM 21.056 26L 18.562 32.648003C 18.446493 32.955143 18.489025 33.299412 18.675808 33.56921C 18.862591 33.839008 19.169855 34 19.498001 34L 48.612 34C 48.940144 34 49.24741 33.839008 49.434193 33.56921C 49.620975 33.299412 49.663506 32.955143 49.548 32.648003L 47.056 26M 32.556 30L 35.556 30"></path></g></g></g><g id="g-root-ic_2_1lw5vqd13h0gzq-stroke" data-item-order="0" transform="translate(320, 165)"><g id="ic_2_1lw5vqd13h0gzq-stroke" fill="none" stroke-linecap="round" stroke-linejoin="round" stroke-miterlimit="4" stroke="#e55753" stroke-width="2" stroke-opacity="1"><g><path d="M 41.5 35C 41.5 37.761425 43.738575 40 46.5 40C 49.261425 40 51.5 37.761425 51.5 35C 51.5 32.238579 49.261425 30 46.5 30C 43.738575 30 41.5 32.238579 41.5 35M 41.5 52C 41.5 54.761425 43.738575 57 46.5 57C 49.261425 57 51.5 54.761425 51.5 52C 51.5 49.238575 49.261425 47 46.5 47C 43.738575 47 41.5 49.238575 41.5 52M 28.5 23L 28.5 48C 28.5 50.209141 30.290861 52 32.5 52L 41.5 52M 28.5 35L 41.5 35M 40.5 17C 40.5 20.313709 37.813709 23 34.5 23L 22.5 23C 19.186291 23 16.5 20.313709 16.5 17C 16.5 13.686292 19.186291 11 22.5 11L 34.5 11C 37.813709 11 40.5 13.686292 40.5 17Z"></path></g></g></g><g id="g-root-tx_processi_htf10l13h1wjt-stroke" data-item-order="0" transform="translate(98, 110)"></g><g id="g-root-tx_coderevi_4ikzqd13h1uyz-stroke" data-item-order="0" transform="translate(38, 314)"></g><g id="g-root-ic_2_zlxzol13h0iyt-stroke" data-item-order="0" transform="translate(218, 338)"><g id="ic_2_zlxzol13h0iyt-stroke" fill="none" stroke-linecap="round" stroke-linejoin="round" stroke-miterlimit="4" stroke="#de8431" stroke-width="2" stroke-opacity="1"><g><path d="M 27.48 49.34C 26.686321 48.020168 26.290478 46.499294 26.34 44.959999L 26.34 43.18C 26.470327 40.891842 25.323666 38.71946 23.360941 37.536095C 21.398216 36.352726 18.941782 36.352726 16.979057 37.536095C 15.016333 38.71946 13.869671 40.891842 14 43.179996L 14 44.959999C 14.049522 46.499294 13.653679 48.020168 12.86 49.34M 14 44.18C 16.366127 44.182392 18.615606 43.152599 20.16 41.360001C 21.715477 43.149189 23.9692 44.177586 26.34 44.18M 25.6 44.16C 25.425673 47.031101 23.046389 49.270302 20.17 49.270302C 17.293612 49.270302 14.914328 47.031101 14.74 44.16M 55.139999 49.34C 54.337681 48.023815 53.941154 46.500324 54 44.959999L 54 43.18C 54.130325 40.891842 52.983665 38.71946 51.020939 37.536095C 49.058216 36.352726 46.60178 36.352726 44.639053 37.536095C 42.676331 38.71946 41.529671 40.891842 41.659996 43.179996L 41.66 44.959999C 41.709522 46.499294 41.313679 48.020168 40.52 49.34M 41.66 44.18C 44.026127 44.182392 46.275608 43.152599 47.82 41.360001C 49.375477 43.149189 51.6292 44.177586 54 44.18M 53.259998 44.16C 53.08567 47.031101 50.70639 49.270302 47.829998 49.270302C 44.953609 49.270302 42.574326 47.031101 42.400002 44.16M 28.34 57C 26.769266 53.93441 23.614574 52.006111 20.170002 52.006111C 16.725428 52.006111 13.570736 53.93441 12 57.000004M 56 57C 54.429268 53.93441 51.274574 52.006111 47.830002 52.006111C 44.385429 52.006111 41.230736 53.93441 39.660004 57.000004M 49 28.98C 49 30.08457 48.104568 30.98 47 30.98L 39 30.98L 33 36.98L 33 30.98L 19 30.98C 17.895432 30.98 17 30.08457 17 28.98L 17 12.98C 17 11.87543 17.895432 10.98 19 10.98L 47 10.98C 48.104568 10.98 49 11.87543 49 12.98ZM 39 17L 43 21L 39 25M 27 17L 23 21L 27 25M 35 17L 31 25"></path></g></g></g><g id="g-root-tx_designar_1hclj3913h1xxd-stroke" data-item-order="0" transform="translate(734, 302)"></g><g id="g-root-ic_buil_13zw2jp13h1xc0-stroke" data-item-order="0" transform="translate(626, 339)"><g id="ic_buil_13zw2jp13h1xc0-stroke" fill="none" stroke-linecap="round" stroke-linejoin="round" stroke-miterlimit="4" stroke="#3cc583" stroke-width="2" stroke-opacity="1"><g><path d="M 53 11L 21 11C 18.790861 11 17 12.790861 17 15C 17 17.209139 18.790861 19 21 19L 53 19L 53 56C 53 56.552284 52.552284 57 52 57L 21 57C 18.790861 57 17 55.209141 17 53L 17 15M 21 15L 51 15M 15 25L 19 25M 15 31L 19 31M 15 37L 19 37M 15 43L 19 43M 15 49L 19 49M 37 47L 28 47C 27.447716 47 27 46.552284 27 46L 27 28.618C 27.000011 28.271273 27.17963 27.949293 27.474657 27.767143C 27.769686 27.584991 28.138014 27.568666 28.448 27.724001L 37 32ZM 37 35L 46 35C 46.552284 35 47 35.447716 47 36L 47 46C 47 46.552284 46.552284 47 46 47L 37 47M 27 35L 32 35M 27 39L 32 39M 37 32L 37 27M 45 35L 45 30M 37 39L 42 39M 37 43L 42 43"></path></g></g></g><g id="g-root-tx_worklife_zpou7913gz2tm-stroke" data-item-order="0" transform="translate(398, 350)"></g><g id="g-root-tx_acquirin_1lsf17p13h1x54-stroke" data-item-order="0" transform="translate(650, 578)"></g><g id="g-root-tx_creating_1hclj3913h1xxe-stroke" data-item-order="0" transform="translate(734, 362)"></g><g id="g-root-tx_coding_18hkzxh13h1vkb-stroke" data-item-order="0" transform="translate(650, 98)"></g><g id="g-root-tx_balancin_1d0ivhh13gz4eh-stroke" data-item-order="0" transform="translate(278.5, 38)"></g><g id="g-root-ic_toss_dkgqud13h0hlb-stroke" data-item-order="0" transform="translate(320, 512)"><g id="ic_toss_dkgqud13h0hlb-stroke" fill="none" stroke-linecap="round" stroke-linejoin="round" stroke-miterlimit="4" stroke="#7f64ea" stroke-width="2" stroke-opacity="1"><g><path d="M 27.25 35.521999L 27.25 26.322001C 27.250475 24.627254 25.876747 23.253138 24.181999 23.253138C 22.487253 23.253138 21.113523 24.627254 21.114 26.322001L 21.114 29.454M 27.25 49L 27.25 41.176003M 21.25 39.084L 21.25 49M 32.737999 27.955999C 37.757999 30.556 40.737999 34.524002 39.686001 37.686001C 38.405998 41.521999 31.667999 42.73 24.636 40.384003C 17.604 38.038002 12.940001 33.026001 14.219999 29.200001C 14.56871 28.204494 15.246754 27.357822 16.142 26.800001M 40.374001 22.25C 40.374001 22.25 47.534 13.05 56.737999 11M 44.466 27.364C 44.466 27.364 49.835999 19.832001 56.737999 18.164M 34.237999 19.181999C 36.868534 15.998333 39.973579 13.238668 43.443996 11M 35.200001 45.543999C 36.732819 46.457611 37.724586 48.060555 37.858002 49.84C 37.858002 53.793999 31.906 57 24.562 57C 17.218 57 11.262 53.799999 11.262 49.84C 11.262 47.374001 13.58 45.198002 17.108 43.91M 31.257999 27.252001C 37.155998 29.806 40.841999 34.225998 39.686001 37.686001C 38.405998 41.521999 31.667999 42.73 24.636 40.384003C 17.604 38.038002 12.940001 33.026001 14.219999 29.200001C 14.733627 27.849226 15.796404 26.779907 17.144001 26.257999M 30.931999 31.115999C 33.27 32.585999 35.091999 33.916 34.613998 35.344002C 33.928001 37.400002 29.799999 37.875999 25.4 36.400002C 21.737999 35.178001 19.035999 33 18.622 31.115999M 31.309999 47.537998C 32.510002 48.124001 33.214001 48.866001 33.214001 49.674C 33.214001 51.562 29.337999 53.09 24.556 53.09C 19.774 53.09 15.9 51.562 15.9 49.674C 15.9 48.942001 16.486 48.273998 17.48 47.706001"></path></g></g></g><g id="g-root-ic_2_hs62ud13h0gzw-stroke" data-item-order="0" transform="translate(524, 512)"><g id="ic_2_hs62ud13h0gzw-stroke" fill="none" stroke-linecap="round" stroke-linejoin="round" stroke-miterlimit="4" stroke="#92bd39" stroke-width="2" stroke-opacity="1"><g><path d="M 31.032 43L 13.032 43C 11.92743 43 11.032 42.104568 11.032 41L 11.032 13C 11.032 11.895431 11.92743 11 13.032 11L 53.032001 11C 54.13657 11 55.032001 11.895431 55.032001 13L 55.032001 39M 18.992001 19L 33.968002 33.975998M 33.968002 27.573999L 33.968002 33.975998L 27.566 33.975998M 18.992001 25.402L 18.992001 19L 25.394001 19M 56.967999 57L 56.967999 51.664001C 56.965794 47.982929 53.981075 45 50.300003 45.000004L 46.967999 45L 46.967999 36C 46.968002 34.343147 45.624855 33 43.968002 33C 42.311146 33 40.968002 34.343147 40.968002 36L 40.968002 50L 38.400002 47.838001C 37.516342 46.776508 35.939491 46.632343 34.877998 47.515999C 33.816509 48.399654 33.672344 49.976509 34.556 51.037998L 39.503998 57"></path></g></g></g><g id="g-root-tx_socializ_2rhlx13h1vr9-stroke" data-item-order="0" transform="translate(134, 518)"></g><g id="g-root-tx_learning_1lsf17p13h1x53-stroke" data-item-order="0" transform="translate(650, 518)"></g><g id="g-root-tx_building_1q88jc513h1wcu-stroke" data-item-order="0" transform="translate(122, 554)"></g><g id="g-root-tx_ensuring_2rhlx13h1vr8-stroke" data-item-order="0" transform="translate(50, 350)"></g></g></g><path id="w1qd7jlh11jheku" d="M65.283 12.757a.35.35 0 0 0 .584.157l5.203-5.141-6.183 3.523.396 1.461zm-2.216-11.7a.35.35 0 0 0-.522.305v3.111l3.276-1.868-2.754-1.548zm3.728 2.105l-4.25 2.421v2.445l6.391-3.644-2.141-1.222zm4.708 3.303a.35.35 0 0 0 0-.609l-1.592-.9-7.365 4.199v1.782a.35.35 0 0 0 .523.305l8.435-4.777z M44.542 2.513c0-.433.355-.783.792-.783s.792.35.792.783-.355.783-.792.783-.792-.35-.792-.783zm59.171 0c0-.433.355-.783.792-.783s.792.35.792.783-.355.783-.792.783-.792-.35-.792-.783zm-85.951 7.636h-1.27v-.487c-.276.201-.864.609-1.881.609-1.202 0-2.274-.794-2.137-2.078.118-1.106 1.153-1.584 1.848-1.727l2.17-.345c0-.539-.29-.956-1.064-1.006s-1.21.305-1.571 1.017l-1.124-.605c1.218-2.631 5.029-1.764 5.029.414v4.207zm-1.27-2.86c.006.396-.062 1.112-.819 1.59-.587.37-1.841.299-1.903-.395-.049-.555.461-.791.906-.898l1.816-.297zm72.662 2.86h-1.27v-.487c-.276.201-.864.609-1.881.609-1.202 0-2.274-.794-2.137-2.078.118-1.106 1.153-1.584 1.848-1.727l2.17-.345c0-.539-.29-.956-1.064-1.006s-1.21.305-1.571 1.017l-1.124-.605c1.218-2.631 5.029-1.764 5.029.414v4.207zm-1.27-2.86c.006.396-.062 1.112-.82 1.59-.587.37-1.841.299-1.903-.395-.049-.555.461-.791.906-.898l1.816-.297zM99.096 10.149H97.85v-8.45h1.246v4.895l2.68-2.559h1.738l-2.633 2.535 2.715 3.578h-1.556l-2.077-2.707-.867.844v1.863zm6.053-6.114h-1.255v6.113h1.255V4.035zm-59.2 0h-1.255v6.113h1.255V4.035zm5.584 6.113V1.697h1.255v2.695c.361-.346 1-.485 1.47-.485 1.452 0 2.477 1.082 2.457 2.448v3.792h-1.27v-3.68c0-.408-.214-1.339-1.315-1.339-.968 0-1.342.756-1.342 1.339v3.681h-1.255zm-4.76-4.894V4.039h.621a.45.45 0 0 0 .45-.45v-.855h1.251v1.305h1.309v1.215h-1.309v3.109c0 .293.105.664.648.664.365 0 .531-.035.736-.07v1.137s-.361.113-.857.113c-1.398 0-1.777-1.051-1.777-1.788V5.254h-1.071zM36.528 4.039h-1.394l2.191 6.106h1.125l1.234-3.918 1.238 3.918h1.129l2.188-6.106h-1.383l-1.359 3.93-1.256-3.93h-1.124l-1.242 3.957-1.348-3.957zM26.212 7.141c-.02 1.566 1.187 3.129 3.223 3.129 1.566 0 2.383-.918 2.734-1.719L31.172 8c-.315.399-.801 1.094-1.738 1.094-1.145 0-1.825-.781-1.891-1.52h4.625c.074-.284.148-.995-.03-1.559-.336-1.064-1.221-2.102-2.839-2.102s-3.088 1.152-3.088 3.227zm1.363-.75h3.348c-.055-.43-.566-1.301-1.623-1.301a1.79 1.79 0 0 0-1.725 1.301zm-8.758.75c.038 1.758 1.277 3.133 3.145 3.133 1.074 0 1.723-.477 1.961-.672v.547h1.242V1.703h-1.258v2.888c-.414-.36-1.062-.68-1.93-.68-1.91 0-3.198 1.473-3.16 3.23zm1.309-.08c0 1.119.723 1.978 1.836 1.978a1.88 1.88 0 0 0 1.94-1.904c0-1.371-1.011-1.99-1.972-1.99s-1.805.798-1.805 1.916zm76.683-.028C96.771 5.275 95.532 3.9 93.664 3.9c-1.074 0-1.723.477-1.961.672v-.547h-1.242v8.22h1.258V9.583c.414.36 1.063.68 1.93.68 1.91 0 3.198-1.473 3.16-3.23zm-1.309.08c0-1.119-.723-1.978-1.836-1.978a1.88 1.88 0 0 0-1.94 1.904c0 1.371 1.011 1.99 1.972 1.99S95.5 8.231 95.5 7.113zM106.441 10.173V4.036h1.254v.382c.361-.346 1-.485 1.47-.485 1.452 0 2.477 1.082 2.457 2.448v3.792h-1.27V6.492c0-.408-.214-1.339-1.315-1.339-.969 0-1.342.756-1.342 1.339v3.681h-1.254zm-30.383-.021V1.824h1.084l4.215 5.777V1.824h1.32v8.328h-1.094l-4.207-5.796v5.796h-1.319zM5.24 10.149H4V2.377h1.014l2.664 3.597 2.654-3.592h1.03v7.766h-1.256V4.762L7.678 8.068 5.24 4.742v5.407z" transform="translate(777, 638)" fill="#80808088" stroke="none"></path></svg>